<svg width="24" height="20" viewBox="0 0 24 20" fill="none" xmlns="http://www.w3.org/2000/svg">
<path fill-rule="evenodd" clip-rule="evenodd" d="M12.2041 19.2372C12.2912 19.2372 12.3746 19.2718 12.4362 19.3333C12.4977 19.3948 12.5323 19.4783 12.5323 19.5653C12.5323 19.6524 12.4977 19.7358 12.4362 19.7974C12.3746 19.8589 12.2912 19.8935 12.2041 19.8935H0.914062C0.827038 19.8935 0.743578 19.8589 0.682043 19.7974C0.620508 19.7358 0.585938 19.6524 0.585938 19.5653C0.585938 19.4783 0.620508 19.3948 0.682043 19.3333C0.743578 19.2718 0.827038 19.2372 0.914062 19.2372H12.2041ZM17.756 0.434706C18.6983 0.434706 19.4623 1.19868 19.4623 2.14105C19.4623 3.08343 18.6983 3.84735 17.756 3.84735C16.8136 3.84735 16.0497 3.08338 16.0497 2.14105C16.0497 1.19868 16.8136 0.434706 17.756 0.434706ZM17.6565 6.86488C17.9371 6.37897 18.3105 5.77447 17.3577 5.22993L14.5914 3.64911L11.554 2.94725C11.2013 2.83743 10.8322 2.95564 10.6053 3.21852L7.70086 6.31344C7.36069 6.67499 7.37803 7.24382 7.73958 7.58399C8.10112 7.92416 8.66995 7.90682 9.01012 7.54527L11.5565 4.83196L13.595 5.3751L11.9556 8.21469C11.5984 8.86508 11.54 9.40949 11.9385 9.88471L14.5797 13.0791L14.1823 18.4627C14.1405 19.0298 14.5663 19.5234 15.1333 19.5653C15.7004 19.6071 16.194 19.1813 16.2359 18.6142L16.6596 12.8228C16.6795 12.5584 16.5959 12.2966 16.4264 12.0927L15.3735 10.8193L17.6565 6.86488ZM18.6243 5.96769C18.649 6.43335 18.4502 6.80258 18.2249 7.193L17.9423 7.68238L19.3166 7.99996C19.6693 8.10979 20.0385 7.99152 20.2654 7.72869L23.1698 4.63377C23.51 4.27222 23.4927 3.70339 23.1311 3.36322C22.7696 3.02305 22.2007 3.04039 21.8606 3.40194L19.3142 6.11525L18.6243 5.96769ZM12.4577 11.5425L11.486 13.1474C11.3492 13.3746 11.1295 13.5398 10.8733 13.6081L5.26523 15.1146C4.716 15.2618 4.15144 14.9358 4.00425 14.3866C3.85711 13.8373 4.18303 13.2728 4.73231 13.1256L9.94669 11.7284L11.1235 9.78477C11.1923 9.96149 11.2937 10.1347 11.4328 10.3029L12.4577 11.5425ZM8.09906 9.6719C8.18609 9.6719 8.26955 9.70647 8.33108 9.768C8.39262 9.82954 8.42719 9.913 8.42719 10C8.42719 10.087 8.39262 10.1705 8.33108 10.232C8.26955 10.2936 8.18609 10.3281 8.09906 10.3281H1.08019C0.993163 10.3281 0.909703 10.2936 0.848168 10.232C0.786633 10.1705 0.752063 10.087 0.752063 10C0.752063 9.913 0.786633 9.82954 0.848168 9.768C0.909703 9.70647 0.993163 9.6719 1.08019 9.6719H8.09906ZM2.76652 16.0487C2.85354 16.0487 2.937 16.0833 2.99853 16.1448C3.06007 16.2064 3.09464 16.2898 3.09464 16.3769C3.09464 16.4639 3.06007 16.5473 2.99853 16.6089C2.937 16.6704 2.85354 16.705 2.76652 16.705H0.914062C0.827038 16.705 0.743578 16.6704 0.682043 16.6089C0.620508 16.5473 0.585938 16.4639 0.585938 16.3769C0.585938 16.2898 0.620508 16.2064 0.682043 16.1448C0.743578 16.0833 0.827038 16.0487 0.914062 16.0487H2.76652ZM5.31216 6.48346C5.39918 6.48346 5.48264 6.51803 5.54418 6.57956C5.60571 6.6411 5.64028 6.72456 5.64028 6.81158C5.64028 6.89861 5.60571 6.98207 5.54418 7.0436C5.48264 7.10514 5.39918 7.13971 5.31216 7.13971H0.914062C0.827038 7.13971 0.743578 7.10514 0.682043 7.0436C0.620508 6.98207 0.585938 6.89861 0.585938 6.81158C0.585938 6.72456 0.620508 6.6411 0.682043 6.57956C0.743578 6.51803 0.827038 6.48346 0.914062 6.48346H5.31216ZM7.28016 3.29502C7.36718 3.29502 7.45064 3.32959 7.51218 3.39113C7.57371 3.45266 7.60828 3.53612 7.60828 3.62314C7.60828 3.71017 7.57371 3.79363 7.51218 3.85516C7.45064 3.9167 7.36718 3.95127 7.28016 3.95127H0.914062C0.827038 3.95127 0.743578 3.9167 0.682043 3.85516C0.620508 3.79363 0.585938 3.71017 0.585938 3.62314C0.585938 3.53612 0.620508 3.45266 0.682043 3.39113C0.743578 3.32959 0.827038 3.29502 0.914062 3.29502H7.28016ZM1.96472 12.8603C2.05174 12.8603 2.1352 12.8949 2.19674 12.9564C2.25827 13.0179 2.29284 13.1014 2.29284 13.1884C2.29284 13.2754 2.25827 13.3589 2.19674 13.4204C2.1352 13.482 2.05174 13.5165 1.96472 13.5165H0.914062C0.827038 13.5165 0.743578 13.482 0.682043 13.4204C0.620508 13.3589 0.585938 13.2754 0.585938 13.1884C0.585938 13.1014 0.620508 13.0179 0.682043 12.9564C0.743578 12.8949 0.827038 12.8603 0.914062 12.8603H1.96472ZM14.2998 0.106628C14.3429 0.106628 14.3856 0.115116 14.4254 0.131605C14.4652 0.148095 14.5014 0.172265 14.5318 0.202734C14.5623 0.233203 14.5865 0.269375 14.603 0.309185C14.6195 0.348995 14.628 0.391663 14.628 0.434753C14.628 0.477843 14.6195 0.520512 14.603 0.560321C14.5865 0.600131 14.5623 0.636304 14.5318 0.666773C14.5014 0.697242 14.4652 0.721412 14.4254 0.737901C14.3856 0.754391 14.3429 0.762879 14.2998 0.762879H0.914062C0.870972 0.762879 0.828304 0.754391 0.788495 0.737901C0.748685 0.721412 0.712512 0.697242 0.682043 0.666773C0.651574 0.636304 0.627404 0.600131 0.610914 0.560321C0.594425 0.520512 0.585938 0.477843 0.585938 0.434753C0.585938 0.391663 0.594425 0.348995 0.610914 0.309185C0.627404 0.269375 0.651574 0.233203 0.682043 0.202734C0.712512 0.172265 0.748685 0.148095 0.788495 0.131605C0.828304 0.115116 0.870972 0.106628 0.914062 0.106628H14.2998Z" fill="#888888"/>
</svg>
