<svg width="30" height="24" viewBox="0 0 30 24" fill="none" xmlns="http://www.w3.org/2000/svg">
<path d="M18.4079 12.9534L16.2871 15.0813C15.4271 15.9444 13.9139 15.963 13.0353 15.0813L10.9144 12.9534L3.29712 20.5954C3.58066 20.7265 3.89328 20.8047 4.22564 20.8047H25.0967C25.4291 20.8047 25.7416 20.7266 26.0251 20.5954L18.4079 12.9534Z" fill="#888888"/>
<path d="M25.0967 3H4.22559C3.89324 3 3.58062 3.07824 3.29717 3.20935L11.4368 11.3759C11.4373 11.3765 11.4379 11.3766 11.4385 11.3771C11.4388 11.3775 11.439 11.3779 11.4391 11.3784L14.0858 14.0338C14.3669 14.3149 14.9555 14.3149 15.2366 14.0338L17.8827 11.3789C17.8827 11.3789 17.8834 11.3777 17.8839 11.3771C17.8839 11.3771 17.8851 11.3765 17.8856 11.3759L26.025 3.2093C25.7416 3.07814 25.4291 3 25.0967 3ZM2.2367 4.24692C2.09001 4.54357 2 4.87286 2 5.22559V18.5791C2 18.9319 2.08991 19.2612 2.23665 19.5578L9.86712 11.9026L2.2367 4.24692ZM27.0856 4.24683L19.4552 11.9026L27.0856 19.5579C27.2323 19.2613 27.3223 18.932 27.3223 18.5791V5.22559C27.3223 4.87276 27.2323 4.54347 27.0856 4.24683Z" fill="#888888"/>
</svg>
