<svg width="24" height="24" viewBox="0 0 24 24" fill="none" xmlns="http://www.w3.org/2000/svg">
<g clip-path="url(#clip0_44_2606)">
<path d="M12 0C11.0939 0 10.3594 0.734531 10.3594 1.64062V2.10938C10.3594 3.01547 11.0939 3.75 12 3.75C12.9061 3.75 13.6406 3.01547 13.6406 2.10938V1.64062C13.6406 0.734531 12.9061 0 12 0ZM14.2803 4.12706C13.7217 4.75767 12.9067 5.15625 12 5.15625C11.0933 5.15625 10.2783 4.75767 9.71967 4.12706C8.97886 4.57997 8.48438 5.39625 8.48438 6.32812V9.60938C8.48438 9.99769 8.79919 10.3125 9.1875 10.3125H9.89062V14.2969C9.89062 14.6852 10.2054 15 10.5938 15H13.4062C13.7946 15 14.1094 14.6852 14.1094 14.2969V10.3125H14.8125C15.2008 10.3125 15.5156 9.99769 15.5156 9.60938V6.32812C15.5156 5.39625 15.0211 4.57997 14.2803 4.12706ZM3.51562 9C2.60953 9 1.875 9.73453 1.875 10.6406V11.1094C1.875 12.0155 2.60953 12.75 3.51562 12.75C4.42172 12.75 5.15625 12.0155 5.15625 11.1094V10.6406C5.15625 9.73453 4.42172 9 3.51562 9ZM5.79595 13.1271C5.2373 13.7577 4.42233 14.1562 3.51562 14.1562C2.60892 14.1562 1.79395 13.7577 1.2353 13.1271C0.494484 13.58 0 14.3962 0 15.3281V18.6094C0 18.9977 0.314812 19.3125 0.703125 19.3125H1.40625V23.2969C1.40625 23.6852 1.72106 24 2.10938 24H4.92188C5.31019 24 5.625 23.6852 5.625 23.2969V19.3125H6.32812C6.71644 19.3125 7.03125 18.9977 7.03125 18.6094V15.3281C7.03125 14.3962 6.53677 13.58 5.79595 13.1271ZM20.4844 9C19.5783 9 18.8438 9.73453 18.8438 10.6406V11.1094C18.8438 12.0155 19.5783 12.75 20.4844 12.75C21.3905 12.75 22.125 12.0155 22.125 11.1094V10.6406C22.125 9.73453 21.3905 9 20.4844 9ZM12.7031 19.0349V16.4062H11.2969V19.0349L7.03125 21.3513V22.9515L12 20.2532L16.9688 22.9515V21.3513L12.7031 19.0349ZM22.7647 13.1271C22.206 13.7577 21.3911 14.1562 20.4844 14.1562C19.5777 14.1562 18.7627 13.7577 18.204 13.1271C17.4632 13.58 16.9688 14.3962 16.9688 15.3281V18.6094C16.9688 18.9977 17.2836 19.3125 17.6719 19.3125H18.375V23.2969C18.375 23.6852 18.6898 24 19.0781 24H21.8906C22.2789 24 22.5938 23.6852 22.5938 23.2969V19.3125H23.2969C23.6852 19.3125 24 18.9977 24 18.6094V15.3281C24 14.3962 23.5055 13.58 22.7647 13.1271Z" fill="#A2A2A2"/>
</g>
<defs>
<clipPath id="clip0_44_2606">
<rect width="24" height="24" fill="white"/>
</clipPath>
</defs>
</svg>
