<svg width="24" height="24" viewBox="0 0 24 24" fill="none" xmlns="http://www.w3.org/2000/svg">
<g clip-path="url(#clip0_41_17619)">
<path d="M9.42835 8.14284C9.42835 8.02918 9.47351 7.92017 9.55388 7.83979C9.63425 7.75942 9.74326 7.71427 9.85693 7.71427C9.9706 7.71427 10.0796 7.75942 10.16 7.83979C10.2404 7.92017 10.2855 8.02918 10.2855 8.14284V11.1428H13.7141V8.14284C13.7141 8.02918 13.7592 7.92017 13.8396 7.83979C13.92 7.75942 14.029 7.71427 14.1427 7.71427C14.2563 7.71427 14.3653 7.75942 14.4457 7.83979C14.5261 7.92017 14.5712 8.02918 14.5712 8.14284V11.1428H15.4284V8.14284C15.427 6.95995 14.4684 6.00141 13.2856 6H10.7141C9.53124 6.00141 8.5727 6.96 8.57129 8.14284V11.1428H9.42845V8.14284H9.42835Z" fill="#A2A2A2"/>
<path d="M12.0001 5.14284C13.4203 5.14284 14.5716 3.99158 14.5716 2.57142C14.5716 1.15126 13.4203 0 12.0001 0C10.58 0 9.42871 1.15126 9.42871 2.57142C9.42871 3.99158 10.58 5.14284 12.0001 5.14284Z" fill="#A2A2A2"/>
<path d="M21.0426 15.993L22.9554 19.3089C23.148 19.1494 23.303 18.9494 23.4094 18.7232C23.5159 18.497 23.5711 18.25 23.5712 18V12C23.5698 10.8171 22.6112 9.85858 21.4284 9.85718C20.2458 9.85929 19.2876 10.8175 19.2855 12V12.9429L19.3091 12.9836L19.9284 11.8989C19.986 11.8026 20.079 11.7328 20.1875 11.7044C20.296 11.676 20.4113 11.6913 20.5087 11.7469C20.606 11.8025 20.6777 11.8941 20.7083 12.002C20.7389 12.1099 20.726 12.2255 20.6724 12.324L19.3901 14.5684C19.315 14.6996 19.2066 14.8087 19.0758 14.8845C18.945 14.9603 18.7964 15.0001 18.6453 15H16.3631C16.1962 14.9936 16.0328 15.0485 15.9037 15.1544C15.7746 15.2603 15.6888 15.4098 15.6624 15.5747C15.6527 15.6647 15.6622 15.7557 15.6902 15.8418C15.7183 15.9279 15.7643 16.007 15.8252 16.074C15.8851 16.141 15.9586 16.1946 16.0407 16.2311C16.1229 16.2676 16.2119 16.2862 16.3018 16.2857H19.3108C19.4864 16.2855 19.6588 16.2389 19.8107 16.1508C19.9626 16.0627 20.0886 15.9362 20.1761 15.7839L21.7579 13.0153C21.8157 12.9195 21.9087 12.8501 22.017 12.822C22.1253 12.7939 22.2403 12.8092 22.3374 12.8647C22.4346 12.9202 22.5062 13.0115 22.5369 13.1191C22.5676 13.2267 22.5551 13.342 22.5019 13.4404L21.0426 15.993Z" fill="#A2A2A2"/>
<path d="M7.63673 14.1428C8.42138 14.1326 9.08925 14.7116 9.19031 15.4898C9.21174 15.6986 9.18911 15.9096 9.12387 16.1091C9.05864 16.3086 8.95225 16.4922 8.8116 16.648C8.67094 16.8038 8.49915 16.9284 8.30734 17.0136C8.11552 17.0988 7.90795 17.1429 7.69805 17.1428H4.68905C4.26388 17.1417 3.85201 16.9945 3.52247 16.7258L0.315 22.2857H23.685L20.4776 16.7259C20.148 16.9945 19.7362 17.1417 19.311 17.1429H16.302C16.0921 17.1429 15.8845 17.0989 15.6927 17.0136C15.5009 16.9284 15.3291 16.8039 15.1884 16.6481C15.0478 16.4923 14.9414 16.3087 14.8761 16.1092C14.8109 15.9097 14.7883 15.6987 14.8097 15.4899C14.9108 14.7117 15.5786 14.1326 16.3633 14.1429H18.6454L18.8168 13.8429L17.8774 12.2143C17.8395 12.1486 17.7849 12.0942 17.7191 12.0566C17.6533 12.0189 17.5787 11.9994 17.5028 12H6.49716C6.42121 11.9993 6.34642 12.0187 6.28045 12.0564C6.21448 12.094 6.15971 12.1485 6.12173 12.2143L5.18316 13.8429L5.35458 14.1429H7.63673V14.1428ZM0.428578 24H23.5714C23.6851 24 23.7941 23.9548 23.8745 23.8744C23.9548 23.7941 24 23.6851 24 23.5714V23.1428H2.56423e-09V23.5714C-6.15435e-06 23.6277 0.0110751 23.6834 0.032611 23.7354C0.0541469 23.7874 0.0857155 23.8347 0.125514 23.8745C0.165312 23.9143 0.212561 23.9458 0.264561 23.9674C0.316561 23.9889 0.372295 24 0.428578 24Z" fill="#A2A2A2"/>
<path d="M2.57142 9.00002C3.99158 9.00002 5.14284 7.84876 5.14284 6.4286C5.14284 5.00844 3.99158 3.85718 2.57142 3.85718C1.15126 3.85718 0 5.00844 0 6.4286C0 7.84876 1.15126 9.00002 2.57142 9.00002Z" fill="#A2A2A2"/>
<path d="M21.4284 9.00002C22.8485 9.00002 23.9998 7.84876 23.9998 6.4286C23.9998 5.00844 22.8485 3.85718 21.4284 3.85718C20.0082 3.85718 18.8569 5.00844 18.8569 6.4286C18.8569 7.84876 20.0082 9.00002 21.4284 9.00002Z" fill="#A2A2A2"/>
<path d="M3.48787 11.7394C3.58654 11.6831 3.70354 11.6682 3.81316 11.6981C3.92278 11.728 4.01604 11.8002 4.07245 11.8989L4.69087 12.9814L4.71445 12.9429V12C4.71234 10.8174 3.75416 9.85929 2.5716 9.85718C1.38866 9.85858 0.430117 10.8171 0.428711 12V18C0.428641 18.2499 0.483679 18.4968 0.589906 18.723C0.696133 18.9493 0.850936 19.1493 1.04329 19.3089L2.95729 15.993L1.50013 13.4404C1.44752 13.342 1.43536 13.227 1.46623 13.1198C1.49711 13.0125 1.56858 12.9216 1.66546 12.8662C1.76235 12.8108 1.877 12.7954 1.98506 12.8233C2.09312 12.8511 2.18606 12.92 2.24413 13.0153L3.82598 15.7839C3.91322 15.9359 4.03889 16.0622 4.19039 16.1503C4.34189 16.2384 4.51389 16.2851 4.68913 16.2857H7.69813C7.78804 16.2862 7.87704 16.2676 7.95921 16.2311C8.04138 16.1946 8.11484 16.1411 8.17471 16.074C8.23561 16.007 8.28162 15.9279 8.30969 15.8418C8.33776 15.7557 8.34726 15.6647 8.33755 15.5747C8.31117 15.4098 8.22531 15.2603 8.0962 15.1544C7.96709 15.0485 7.80368 14.9936 7.63682 15H5.35466C5.20358 14.9999 5.05519 14.9599 4.92454 14.8841C4.79388 14.8082 4.6856 14.6992 4.61066 14.568L3.3284 12.324C3.21107 12.1186 3.28246 11.8569 3.48787 11.7394Z" fill="#A2A2A2"/>
</g>
<defs>
<clipPath id="clip0_41_17619">
<rect width="24" height="24" fill="white"/>
</clipPath>
</defs>
</svg>
