<svg width="31" height="25" viewBox="0 0 31 25" fill="none" xmlns="http://www.w3.org/2000/svg">
<path fill-rule="evenodd" clip-rule="evenodd" d="M20.9157 6.24966C20.9157 4.48823 19.5039 3.0603 17.7624 3.0603H12.5548C10.8133 3.0603 9.40155 4.48823 9.40155 6.24966V9.00411H8.35047C7.11032 9.00411 6.10498 10.021 6.10498 11.2753V19.6836C6.10498 20.938 7.11032 21.9548 8.35047 21.9548H21.9668C23.2069 21.9548 24.2123 20.938 24.2123 19.6836V11.2753C24.2123 10.021 23.2069 9.00411 21.9668 9.00411H20.9157V6.24966ZM11.2171 6.24966V9.00411H19.1002V6.24966C19.1002 5.50239 18.5012 4.8966 17.7624 4.8966H12.5548C11.816 4.8966 11.2171 5.50239 11.2171 6.24966ZM13.4148 14.7524C13.4148 15.4226 13.7905 16.0043 14.3409 16.294V17.9376C14.3409 18.3681 14.6864 18.7172 15.1127 18.7172C15.5389 18.7172 15.8844 18.3681 15.8844 17.9376V16.3164C16.4587 16.035 16.8547 15.4404 16.8547 14.7524C16.8547 13.7928 16.0846 13.015 15.1347 13.015C14.1848 13.015 13.4148 13.7928 13.4148 14.7524Z" fill="#888888"/>
</svg>
