<svg width="24" height="24" viewBox="0 0 24 24" fill="none" xmlns="http://www.w3.org/2000/svg">
<path d="M21.0375 0H12C10.3638 0 9.0375 1.32384 9.0375 2.9625V16.5187C9.0375 17.0938 9.69708 17.4302 10.1625 17.0812L12.9875 14.9625H21.0375C22.6738 14.9625 24 13.6386 24 12V2.9625C24 1.32619 22.6762 0 21.0375 0ZM15.8156 11.1969H12.7531C12.3648 11.1969 12.05 10.8821 12.05 10.4938C12.05 10.1054 12.3648 9.79064 12.7531 9.79064H15.8156C16.204 9.79064 16.5187 10.1054 16.5187 10.4938C16.5187 10.8821 16.204 11.1969 15.8156 11.1969ZM20.2845 8.18447H12.7531C12.3647 8.18447 12.05 7.86947 12.05 7.48134C12.05 7.09294 12.3647 6.77822 12.7531 6.77822H20.2844C20.6726 6.77822 20.9875 7.09294 20.9875 7.48134C20.9875 7.86947 20.6729 8.18447 20.2845 8.18447ZM20.2845 5.17181H12.7531C12.3647 5.17181 12.05 4.85705 12.05 4.46869C12.05 4.08052 12.3647 3.76556 12.7531 3.76556H20.2844C20.6726 3.76556 20.9875 4.08052 20.9875 4.46869C20.9875 4.85705 20.6729 5.17181 20.2845 5.17181ZM7.79241 14.6202C7.79241 16.4558 6.30431 17.944 4.46869 17.944C2.63306 17.944 1.14497 16.4559 1.14497 14.6202C1.14497 12.7844 2.63306 11.2963 4.46869 11.2963C6.30431 11.2963 7.79241 12.7844 7.79241 14.6202ZM4.46869 17.944C2.00081 17.944 0 19.9447 0 22.4127V23.2969C0 23.6852 0.314766 24 0.703125 24H8.23444C8.62261 24 8.93756 23.6852 8.93756 23.2969V22.4127C8.93756 19.9447 6.93675 17.944 4.46869 17.944Z" fill="#A2A2A2"/>
</svg>
