<svg width="31" height="25" viewBox="0 0 31 25" fill="none" xmlns="http://www.w3.org/2000/svg">
<path d="M15.6178 11.786C17.8099 11.786 19.5869 10.009 19.5869 7.81682C19.5869 5.62469 17.8099 3.84766 15.6178 3.84766C13.4257 3.84766 11.6486 5.62469 11.6486 7.81682C11.6486 10.009 13.4257 11.786 15.6178 11.786Z" fill="#888888"/>
<path d="M22.9518 18.1298C23.1961 18.7195 23.3678 19.3351 23.4642 19.9631C23.5655 20.6232 23.0147 21.1677 22.3469 21.1677H8.88863C8.22081 21.1677 7.67003 20.6232 7.77136 19.9631C7.86777 19.3351 8.03945 18.7195 8.28371 18.1298C8.68265 17.1667 9.26738 16.2916 10.0045 15.5544C10.7417 14.8173 11.6168 14.2325 12.5799 13.8336C13.543 13.4347 14.5753 13.2293 15.6178 13.2293C16.6602 13.2293 17.6925 13.4347 18.6556 13.8336C19.6188 14.2325 20.4939 14.8173 21.231 15.5544C21.9682 16.2916 22.5529 17.1667 22.9518 18.1298Z" fill="#888888"/>
</svg>
